<svg id="visual" viewBox="0 0 960 540" width="960" height="540" xmlns="http://www.w3.org/2000/svg" xmlns:xlink="http://www.w3.org/1999/xlink" version="1.1"><rect width="960" height="540" fill="#fdfdfd"></rect><g><g transform="translate(475 277)"><path d="M0 -75.7L65.5 -37.8L65.5 37.8L0 75.7L-65.5 37.8L-65.5 -37.8Z" stroke="#ab0e00" fill="none" stroke-width="2"></path></g><g transform="translate(205 463)"><path d="M0 -73L63.2 -36.5L63.2 36.5L0 73L-63.2 36.5L-63.2 -36.5Z" stroke="#ab0e00" fill="none" stroke-width="2"></path></g><g transform="translate(236 139)"><path d="M0 -72L62.4 -36L62.4 36L0 72L-62.4 36L-62.4 -36Z" stroke="#ab0e00" fill="none" stroke-width="2"></path></g><g transform="translate(633 423)"><path d="M0 -70L60.6 -35L60.6 35L0 70L-60.6 35L-60.6 -35Z" stroke="#ab0e00" fill="none" stroke-width="2"></path></g><g transform="translate(814 168)"><path d="M0 -73L63.2 -36.5L63.2 36.5L0 73L-63.2 36.5L-63.2 -36.5Z" stroke="#ab0e00" fill="none" stroke-width="2"></path></g></g></svg>